<?xml version="1.0" standalone="no"?>
<!DOCTYPE svg PUBLIC "-//W3C//DTD SVG 1.1//EN" "http://www.w3.org/Graphics/SVG/1.1/DTD/svg11.dtd" >
<svg xmlns="http://www.w3.org/2000/svg">
<metadata>Generated by IcoMoon</metadata>
<defs>
<font id="icomoon" horiz-adv-x="512">
<font-face units-per-em="512" ascent="480" descent="-32" />
<missing-glyph horiz-adv-x="512" />
<glyph unicode="&#x20;" d="" horiz-adv-x="256" />
<glyph unicode="&#xe600;" d="M76.2 251.638c59.707 0.049 119.424 0.040 179.141 0.040 69.021-0.030 138.073 0.226 207.124-0.207 16.010-0.118 22.931 6.282 22.291 22.125-0.453 11.166 0.207 22.39-0.128 33.565-1.979 67.308-56.635 120.724-124.042 120.911-69.681 0.236-139.333-0.138-209.005 0.128-34.875 0.148-63.99-12.603-88.359-37.1-24.428-24.566-36.145-54.577-36.392-88.822-0.413-55.661-4.992-50.649 49.369-50.639zM353.043 400.541c59.421-0.413 100.135-45.421 101.583-96.876 0.305-10.87-10.171-19.623-21.051-19.623-118.291 0-236.77 0-356.175 0-10.88 0-20.726 8.803-20.313 19.663 2.196 58.003 41.689 96.069 103.867 96.384 64.010 0.325 128.049 0.877 192.089 0.453zM458.733 166.695c-67.742 0.089-135.464 0.029-203.185 0.029-68.342 0.010-136.694-0.276-205.046 0.187-17.477 0.138-24.251-6.39-24.044-24.202 0.768-66.235 56.153-122.584 122.26-122.781 70.833-0.226 141.667-0.128 212.499-0.010 66.166 0.128 121.108 53.356 123.461 119.404 0.837 23.483-2.629 27.313-25.945 27.373zM140.219 50.156c-37.632 1.024-66.235 27.923-78.415 67.032-3.239 10.387 4.332 19.151 15.213 19.151 119.277 0 237.292 0 355.229 0 10.88 0 20.382-8.97 17.733-19.515-8.418-33.497-41.482-65.517-78.543-66.56-77.026-2.127-154.191-2.186-231.217-0.108zM469.839 237.155c-70.853 0.059-141.706 0.030-212.529 0.040-72.094 0.019-144.177 0.089-216.241-0.030-18.707-0.030-25.994-8.202-25.728-27.953 0.246-19.053 8.428-28.17 26.467-28.19 142.917-0.099 285.863-0.079 428.76 0.089 17.024 0.019 26.161 10.634 26.112 28.899-0.069 18.668-8.271 27.117-26.841 27.146zM139.707 362.811h0.827c2.491 0 4.51 2.018 4.51 4.51v10.673c0 2.491-2.018 4.51-4.51 4.51h-0.827c-2.491 0-4.51-2.019-4.51-4.51v-10.673c0-2.491 2.029-4.51 4.51-4.51zM188.938 343.119h0.827c2.491 0 4.51 2.018 4.51 4.5v10.693c0 2.481-2.018 4.5-4.51 4.5h-0.827c-2.491 0-4.51-2.019-4.51-4.5v-10.693c0-2.481 2.029-4.5 4.51-4.5zM316.938 343.119h0.827c2.491 0 4.51 2.018 4.51 4.5v10.693c0 2.481-2.019 4.5-4.51 4.5h-0.827c-2.491 0-4.51-2.019-4.51-4.5v-10.693c0-2.481 2.029-4.5 4.51-4.5zM139.707 313.581h0.827c2.491 0 4.51 2.018 4.51 4.5v10.693c0 2.481-2.018 4.5-4.51 4.5h-0.827c-2.491 0-4.51-2.019-4.51-4.5v-10.693c0-2.481 2.029-4.5 4.51-4.5zM257.861 362.811h0.827c2.491 0 4.51 2.018 4.51 4.51v10.673c0 2.491-2.019 4.51-4.51 4.51h-0.827c-2.491 0-4.51-2.019-4.51-4.51v-10.673c0-2.491 2.029-4.51 4.51-4.51zM257.861 313.581h0.827c2.491 0 4.51 2.018 4.51 4.5v10.693c0 2.481-2.019 4.5-4.51 4.5h-0.827c-2.491 0-4.51-2.019-4.51-4.5v-10.693c0-2.481 2.029-4.5 4.51-4.5zM366.168 362.811h0.827c2.491 0 4.51 2.018 4.51 4.51v10.673c0 2.491-2.019 4.51-4.51 4.51h-0.827c-2.491 0-4.51-2.019-4.51-4.51v-10.673c0-2.491 2.029-4.51 4.51-4.51zM366.168 313.581h0.827c2.491 0 4.51 2.018 4.51 4.5v10.693c0 2.481-2.019 4.5-4.51 4.5h-0.827c-2.491 0-4.51-2.019-4.51-4.5v-10.693c0-2.481 2.029-4.5 4.51-4.5z" />
<glyph unicode="&#xe601;" d="M352 288h-320c-17.5 0-32-16-32-32v-64c0-16 16-32 32-32h320c16 0 32 16 32 32v64c0 16-16 32-32 32zM64 192h-32v64h32v-64zM128 192h-32v64h32v-64zM192 192h-32v64h32v-64zM256 192h-32v64h32v-64zM352 128h-320c-17.5 0-32-16-32-32v-64c0-16 16-32 32-32h320c16 0 32 16 32 32v64c0 16-16 32-32 32zM64 32h-32v64h32v-64zM128 32h-32v64h32v-64zM192 32h-32v64h32v-64zM256 32h-32v64h32v-64zM352 448h-320c-17.5 0-32-16-32-32v-64c0-16 16-32 32-32h320c16 0 32 16 32 32v64c0 16-16 32-32 32zM64 352h-32v64h32v-64zM128 352h-32v64h32v-64zM192 352h-32v64h32v-64zM256 352h-32v64h32v-64zM352 384h-32v32h32v-32z" horiz-adv-x="384" />
<glyph unicode="&#xe602;" d="M256 448c-12.032 0-23.854-0.896-35.412-2.606-0.15 0.391-0.312 0.774-0.491 1.148 6.413 5.001 9.775 11.915 8.317 18.776-1.867 8.782-11.197 14.682-23.217 14.682-2.59 0-5.229-0.281-7.84-0.836-15.084-3.207-25.073-14.311-22.741-25.281 1.417-6.669 7.146-11.669 15.082-13.692-0.016-0.486-0.008-0.975 0.021-1.467-100.311-28.765-173.719-121.169-173.719-230.724 0-132.549 107.452-240 240-240s240 107.451 240 240c0 132.548-107.451 240-240 240zM182.441 455.546c-1.353 6.363 6.24 13.595 16.579 15.792 2.066 0.439 4.145 0.662 6.177 0.662 8.018 0 14.347-3.432 15.392-8.345 0.798-3.755-1.535-7.805-5.693-10.952-3.517 2.483-8.008 3.563-12.55 2.598-4.522-0.961-8.174-3.754-10.379-7.428-5.092 1.225-8.754 4.042-9.526 7.673zM384.693 79.307c-21.984-21.984-48.605-37.639-77.655-46.077l-21.198 34.384-5.373-39.979c-8.045-1.076-16.213-1.635-24.467-1.635-48.614 0-94.318 18.932-128.693 53.307-21.984 21.983-37.639 48.605-46.077 77.654l34.384 21.199-39.98 5.373c-1.075 8.045-1.634 16.213-1.634 24.467 0 48.614 18.931 94.318 53.307 128.693 21.984 21.984 48.606 37.639 77.655 46.078l21.198-34.385 5.374 39.98c8.044 1.075 16.212 1.634 24.466 1.634 48.614 0 94.318-18.931 128.693-53.307 21.984-21.984 37.639-48.606 46.077-77.655l-34.385-21.199 39.98-5.373c1.076-8.044 1.635-16.212 1.635-24.466 0-48.614-18.932-94.318-53.307-128.693zM380.451 332.451l-98.489-74.852c-7.322 3.829-15.438 6.031-23.708 6.363l-25.54 53.59-1.534-59.332c-6.642-3.268-12.552-7.832-17.438-13.475l-31.544 11.182 23.046-24.269c-3.167-6.759-4.933-14.015-5.217-21.412l-53.579-25.533 59.369-1.534c0.19-0.384 0.387-0.763 0.585-1.141l-74.852-98.49 98.489 74.852c7.322-3.828 15.437-6.030 23.708-6.362l25.54-53.591 1.533 59.332c6.643 3.269 12.553 7.832 17.439 13.476l31.545-11.184-23.047 24.27c3.168 6.76 4.934 14.015 5.218 21.412l53.578 25.533-59.368 1.535c-0.189 0.383-0.387 0.762-0.585 1.14l74.851 98.49zM256.051 257.733v0zM246.021 254.951c3.363 0.715 6.722 1.059 10.028 1.059 2.072 0 4.125-0.135 6.147-0.398l0.046-0.016-0.005 0.011c4.366-0.572 8.588-1.75 12.566-3.448l-35.773-27.188-27.19-35.776c-1.188 2.797-2.135 5.742-2.79 8.826-5.513 25.93 11.040 51.418 36.971 56.93zM281.060 167.058v0 0c-4.528-2.772-9.591-4.842-15.080-6.009-3.363-0.715-6.722-1.059-10.027-1.059-2.075 0-4.129 0.136-6.154 0.399l-0.034 0.005c-4.367 0.571-8.587 1.75-12.566 3.447l35.772 27.188 27.19 35.777c1.188-2.797 2.135-5.743 2.79-8.827 4.345-20.441-5.028-40.6-21.891-50.921z" />
<glyph unicode="&#xe603;" d="M255.023 480c-139.862 0-240.374-101.448-240.374-253.612 0-135.409 97.751-258.388 240.392-258.388 144.039 0 242.31 122.943 242.31 258.388 0 153.38-103.723 253.612-242.328 253.612zM344.179 230.729c-0.034-84.676-4.549-205.241-89.138-205.241v-0.017c-83.392 0-86.716 120.633-86.716 205.154 0 99.19 9.28 194.284 86.716 194.284 77.437 0 89.138-96.292 89.138-194.18z" />
<glyph unicode="&#xe604;" d="M511.263 312.93l-5.93-38.040c0 0-8.477 70.428-18.866 96.757-15.923 40.344-23.007 40.020-23.054 39.961 10.665-27.102 8.731-41.662 8.731-41.662s-18.896 51.499-68.856 67.884c-55.343 18.141-85.285 13.182-88.744 12.243-0.525 0.004-1.032 0.005-1.515 0.005 0.409-0.031 0.806-0.073 1.213-0.106-0.017-0.010-0.045-0.021-0.041-0.026 0.225-0.274 61.153-10.651 71.958-25.498 0 0-25.88 0-51.636-7.421-1.164-0.333 94.762-11.982 114.373-107.837 0 0-10.515 21.938-23.52 25.664 8.553-26.018 6.357-75.388-1.788-99.925-1.048-3.156-2.12 13.641-18.164 20.875 5.14-36.823-0.308-95.228-25.854-111.316-1.991-1.252 16.015 57.655 3.621 34.881-71.354-109.401-155.702-50.486-193.624-24.555 19.433-4.231 56.327 0.659 72.657 12.806 0.021 0.015 0.039 0.028 0.059 0.043 17.734 12.126 28.236 20.982 37.667 18.886 9.437-2.107 15.719 7.363 8.39 15.765-7.338 8.419-25.157 19.989-49.262 13.683-17-4.452-38.067-23.261-70.224-4.216-24.682 14.625-27.006 26.773-27.225 35.188 0.609 2.983 1.377 5.768 2.288 8.312 2.841 7.935 11.456 10.329 16.247 12.219 8.128-1.396 15.131-3.931 22.484-7.703 0.095 2.447 0.126 5.695-0.009 9.38 0.705 1.401 0.269 5.626-0.861 10.79-0.651 5.154-1.71 10.487-3.376 15.346 0.006 0.001 0.010 0.005 0.015 0.007 0.028 0.009 0.054 0.020 0.078 0.035 0.039 0.022 0.073 0.056 0.104 0.095 0.006 0.010 0.015 0.017 0.022 0.026 0.041 0.062 0.077 0.136 0.099 0.233 0.51 2.309 6.011 6.762 12.859 11.55 6.136 4.29 13.351 8.848 19.034 12.376 5.030 3.124 8.86 5.441 9.673 6.049 0.309 0.233 0.679 0.506 1.082 0.818 0.075 0.058 0.15 0.116 0.227 0.177 0.047 0.037 0.095 0.074 0.143 0.113 2.705 2.154 6.742 6.224 7.589 14.789 0.002 0.021 0.005 0.040 0.006 0.061 0.025 0.252 0.046 0.507 0.065 0.767 0.014 0.181 0.025 0.363 0.036 0.548 0.007 0.142 0.016 0.283 0.022 0.428 0.015 0.337 0.025 0.682 0.030 1.032 0 0.020 0.001 0.038 0.002 0.058 0.011 0.829-0.003 1.693-0.052 2.601-0.027 0.507-0.063 0.965-0.149 1.381-0.004 0.022-0.009 0.046-0.014 0.068-0.009 0.041-0.018 0.082-0.029 0.122-0.018 0.073-0.038 0.146-0.061 0.215-0.003 0.009-0.005 0.016-0.008 0.023-0.026 0.080-0.056 0.157-0.087 0.232-0.002 0.003-0.002 0.005-0.003 0.008-0.877 2.054-4.16 2.829-17.721 3.059-0.013 0.001-0.025 0.001-0.038 0.001v0c-5.533 0.094-12.769 0.097-22.251 0.059-16.625-0.067-25.814 16.252-28.747 22.566 4.020 22.23 15.638 38.071 34.725 48.813 0.361 0.203 0.29 0.371-0.137 0.489 3.732 2.257-45.123 0.062-67.593-28.518-19.944 4.957-37.327 4.623-52.308 1.107-2.877 0.081-6.462 0.44-10.717 1.326-9.962 9.028-24.224 25.701-24.988 45.604 0 0-0.046-0.036-0.126-0.102-0.010 0.191-0.028 0.38-0.036 0.571 0 0-30.358-23.332-25.814-86.941-0.011-1.018-0.032-1.993-0.060-2.937-8.216-11.144-12.293-20.51-12.596-22.578-7.28-14.822-14.667-37.127-20.678-70.99 0 0 4.204 13.333 12.642 28.433-6.206-19.011-11.082-48.578-8.218-92.928 0 0 0.757 9.833 3.437 23.997 2.093-27.505 11.259-61.462 34.429-101.394 44.474-76.66 112.835-115.37 188.396-121.308 13.418-1.106 27.025-1.132 40.712-0.093 1.258 0.089 2.516 0.182 3.775 0.287 15.482 1.087 31.067 3.426 46.619 7.183 212.586 51.399 189.471 308.099 189.471 308.099z" />
<glyph unicode="&#xe605;" d="M129.139 256.729l-73.266 126.901c46.909 58.732 119.117 96.37 200.127 96.37 93.716 0 175.655-50.368 220.266-125.5h-208.885c-3.752 0.325-7.546 0.5-11.381 0.5-60.937 0-112.289-41.822-126.861-98.271zM347.653 317.5h146.73c11.37-28.965 17.617-60.502 17.617-93.5 0-140.413-113.050-254.402-253.093-255.963l104.697 181.339c14.74 21.189 23.396 46.913 23.396 74.624 0 36.585-15.082 69.71-39.347 93.5zM163 224c0 51.28 41.72 93 93 93s93-41.72 93-93c0-51.28-41.72-93-93-93s-93 41.72-93 93zM291.091 97.779l-73.289-126.939c-123.266 18.442-217.802 124.758-217.802 253.16 0 45.609 11.942 88.423 32.848 125.512l104.515-181.027c20.934-44.556 66.238-75.485 118.637-75.485 12.15 0 23.918 1.67 35.091 4.779z" />
<glyph unicode="&#xe606;" d="M240 448c-132.548 0-240-107.452-240-240s107.452-240 240-240c132.549 0 240 107.451 240 240s-107.451 240-240 240zM375.795 128c4.29 20.227 6.998 41.696 7.879 64h63.723c-1.668-22.098-6.812-43.557-15.34-64h-56.262zM104.205 288c-4.29-20.227-6.998-41.696-7.879-64h-63.722c1.668 22.097 6.811 43.557 15.339 64h56.262zM343.018 288c4.807-20.481 7.699-41.927 8.64-64h-95.658v64h87.018zM256 320v93.669c7.295-2.123 14.522-5.685 21.614-10.685 13.291-9.37 26.006-23.804 36.77-41.743 7.441-12.401 13.876-26.208 19.248-41.242h-77.632zM165.616 361.242c10.764 17.939 23.478 32.374 36.77 41.743 7.091 5 14.319 8.562 21.614 10.685v-93.67h-77.632c5.373 15.033 11.808 28.84 19.248 41.242zM224 288v-64h-95.657c0.94 22.073 3.833 43.519 8.639 64h87.018zM47.944 128c-8.528 20.443-13.671 41.902-15.339 64h63.722c0.881-22.304 3.589-43.773 7.879-64h-56.262zM128.343 192h95.657v-64h-87.018c-4.806 20.48-7.699 41.927-8.639 64zM224 96v-93.67c-7.294 2.123-14.522 5.686-21.614 10.685-13.292 9.37-26.007 23.805-36.77 41.743-7.441 12.402-13.875 26.209-19.249 41.242h77.633zM314.384 54.758c-10.764-17.938-23.479-32.373-36.77-41.743-7.092-4.999-14.319-8.562-21.614-10.685v93.67h77.633c-5.373-15.033-11.808-28.84-19.249-41.242zM256 128v64h95.657c-0.94-22.073-3.833-43.52-8.64-64h-87.017zM383.674 224c-0.881 22.304-3.589 43.773-7.879 64h56.262c8.528-20.443 13.672-41.903 15.34-64h-63.723zM415.329 320h-47.95c-9.319 29.381-22.188 55.147-37.658 75.714 21.268-10.17 40.529-23.808 57.357-40.636 10.74-10.739 20.181-22.469 28.251-35.078zM92.922 355.078c16.829 16.829 36.090 30.466 57.357 40.636-15.471-20.567-28.338-46.333-37.658-75.714h-47.949c8.069 12.609 17.511 24.339 28.25 35.078zM64.672 96h47.949c9.32-29.381 22.188-55.147 37.659-75.715-21.268 10.17-40.529 23.808-57.357 40.637-10.74 10.739-20.182 22.469-28.251 35.078zM387.078 60.922c-16.828-16.829-36.090-30.467-57.357-40.637 15.471 20.567 28.339 46.334 37.658 75.715h47.95c-8.070-12.609-17.511-24.339-28.251-35.078z" />
<glyph unicode="&#xe607;" d="M192 186.667c0 0 101.972 61.18 159.383 37.013 11.901 18.134 23.624 37.668 35.101 57.611-56.163 13.76-130.484 1.376-130.484 1.376s95.106 57.061 153.333 39.2c11.675 21.054 23.027 41.821 33.978 61.152-46.388 3.134-91.311-4.352-91.311-4.352s59.574 35.744 113.289 41.799c16.899 27.43 32.585 48.94 46.711 59.534-280.5 0-448-320-512-512h32l96 160c0 0 32-32 128 0 22.737 7.579 45.474 28.626 67.786 56.967-56.308 14.277-131.786 1.7-131.786 1.7z" />
<glyph unicode="&#xe608;" d="M74.667 10.667c0-23.573 19.093-42.667 42.667-42.667h266.667c23.573 0 42.667 19.093 42.667 42.667l-0.001 442.666c0 14.72-11.947 26.667-26.667 26.667s-26.667-11.947-26.667-26.667v-26.666h-256c-23.573 0-42.666-19.094-42.666-42.667v-373.333zM151.467 373.333h198.4c13.013 0 23.467-10.453 23.467-23.467v-113.067c0-13.013-10.453-23.467-23.467-23.467l-198.4 0.001c-13.013 0-23.467 10.453-23.467 23.467v113.067c0 13.013 10.453 23.466 23.467 23.466zM128 144c0 14.72 11.947 26.667 26.667 26.667s26.667-11.947 26.667-26.667-11.947-26.667-26.667-26.667-26.667 11.947-26.667 26.667zM224 144c0 14.72 11.947 26.667 26.667 26.667s26.667-11.947 26.667-26.667-11.947-26.667-26.667-26.667-26.667 11.947-26.667 26.667zM320 144c0 14.72 11.947 26.667 26.667 26.667s26.667-11.947 26.667-26.667-11.947-26.667-26.667-26.667-26.667 11.947-26.667 26.667zM128 48c0 14.72 11.947 26.667 26.667 26.667s26.667-11.947 26.667-26.667-11.947-26.667-26.667-26.667-26.667 11.947-26.667 26.667zM224 48c0 14.72 11.947 26.667 26.667 26.667s26.667-11.947 26.667-26.667-11.947-26.667-26.667-26.667-26.667 11.947-26.667 26.667zM320 48c0 14.72 11.947 26.667 26.667 26.667s26.667-11.947 26.667-26.667-11.947-26.667-26.667-26.667-26.667 11.947-26.667 26.667z" />
<glyph unicode="&#xe609;" d="M373.333 368c0-14.72 11.947-26.667 26.667-26.667s26.667 11.947 26.667 26.667-11.947 26.667-26.667 26.667-26.667-11.947-26.667-26.667zM373.333 197.333c0-14.72 11.947-26.667 26.667-26.667s26.667 11.947 26.667 26.667-11.947 26.667-26.667 26.667-26.667-11.947-26.667-26.667zM0 128c0-23.573 19.093-42.667 42.667-42.667h181.333v-29.44c-5.227-3.52-9.707-8-13.227-13.227l-130.773 0.001c-14.72 0-26.667-11.947-26.667-26.667s11.947-26.667 26.667-26.667h130.773c8.64-12.907 23.253-21.333 39.893-21.333s31.253 8.427 39.893 21.333h141.441c14.72 0 26.667 11.947 26.667 26.667s-11.947 26.667-26.667 26.667h-141.44c-3.52 5.227-8 9.707-13.227 13.227v29.439h192c23.573 0 42.667 19.093 42.667 42.667v309.333c0 23.573-19.093 42.667-42.667 42.667h-426.666c-23.574 0-42.667-19.093-42.667-42.667v-309.333zM76.8 426.667h358.4c13.013 0 23.467-10.454 23.467-23.467v-70.4c0-13.013-10.453-23.467-23.467-23.467h-358.4c-13.013 0-23.467 10.454-23.467 23.467v70.4c0 13.013 10.454 23.467 23.467 23.467zM76.8 256h358.4c13.013 0 23.467-10.453 23.467-23.467v-70.4c0-13.013-10.453-23.467-23.467-23.467l-358.4 0.001c-13.013 0-23.467 10.453-23.467 23.466v70.4c0 13.014 10.454 23.467 23.467 23.467z" />
<glyph unicode="&#xe60a;" d="M154.667 218.645c0-10.667 1.707-21.013 4.693-30.624l-43.52-25.067-77.44 20.694c-13.973 3.733-28.373-4.587-32.213-18.443-3.733-13.984 4.587-28.267 18.667-32l62.613-16.747-16.853-62.293c-3.733-13.877 4.587-28.267 18.56-32 14.080-3.733 28.48 4.587 32.213 18.539l20.693 77.024 45.547 26.144c11.84-10.773 26.24-18.891 42.133-23.168v-58.667l-56.747-47.872c-10.24-10.56-10.24-27.627 0-38.293 10.24-10.56 26.88-10.56 37.12 0l45.867 47.349 45.867-47.349c10.24-10.56 26.88-10.56 37.109 0 10.251 10.667 10.251 27.733 0 38.293l-56.736 47.872v58.667c15.893 4.267 30.293 12.395 42.133 23.168l45.547-26.144 20.693-77.024c3.733-13.963 18.123-22.272 32.213-18.539 13.984 3.733 22.304 18.123 18.56 32l-16.853 62.293 62.613 16.747c14.080 3.733 22.4 18.016 18.667 32-3.829 13.856-18.24 22.165-32.213 18.443l-77.451-20.683-43.509 25.067c2.976 9.6 4.683 19.957 4.683 30.624s-1.707 21.013-4.683 30.72l43.509 24.96 77.451-20.693c13.973-3.733 28.373 4.597 32.213 18.453 3.733 13.973-4.587 28.267-18.667 32l-62.613 16.747 16.853 62.293c3.744 13.867-4.587 28.256-18.56 32-14.080 3.733-28.48-4.587-32.213-18.56l-20.693-77.013-45.547-26.133c-11.84 10.773-26.24 18.88-42.133 23.147v48l56.736 58.56c10.251 10.56 10.251 27.627 0 38.293-10.24 10.56-26.88 10.56-37.109 0l-45.867-47.382-45.867 47.36c-10.24 10.56-26.88 10.56-37.12 0-10.24-10.667-10.24-27.733 0-38.293l56.747-58.56v-48c-15.893-4.267-30.293-12.373-42.133-23.147l-45.547 26.133-20.693 77.013c-3.733 13.984-18.133 22.293-32.213 18.56-13.973-3.744-22.293-18.133-18.56-32l16.853-62.293-62.613-16.747c-14.080-3.733-22.4-18.027-18.667-32 3.84-13.867 18.24-22.187 32.213-18.453l77.44 20.693 43.52-24.96c-2.987-9.706-4.693-20.042-4.693-30.709zM256 170.645c-26.56 0-48 21.44-48 48s21.44 48 48 48 48-21.44 48-48c0-26.56-21.44-48-48-48z" />
<glyph unicode="&#xe60b;" d="M249.173 447.637l-3.84 0.726-3.84-0.704c-102.848-18.858-177.494-108.459-177.494-212.992 0-98.496 66.304-183.68 160-208.96v-25.707c0-11.798 9.558-21.334 21.333-21.334s21.334 9.536 21.334 21.334v25.707c93.696 25.28 160 110.464 160 208.96 0 104.534-74.646 194.133-177.494 212.97zM266.666 70.4v249.6c0 11.797-9.558 21.334-21.334 21.334s-21.334-9.536-21.334-21.334v-249.6c-67.84 23.317-115.2 86.486-117.12 159.638l66.923-66.923c2.070-2.070 4.8-3.115 7.53-3.115s5.462 1.046 7.552 3.115c4.16 4.16 4.16 10.923 0 15.082l-80.406 80.406c2.838 20.565 9.258 40.042 18.71 57.792l46.592-46.613c2.090-2.070 4.822-3.115 7.552-3.115s5.462 1.046 7.552 3.115c4.16 4.16 4.16 10.923 0 15.082l-50.197 50.197c24.79 35.008 62.272 60.714 106.645 69.866 44.374-9.173 81.856-34.88 106.645-69.866l-50.197-50.197c-4.16-4.16-4.16-10.923 0-15.082 2.091-2.070 4.822-3.115 7.552-3.115s5.462 1.046 7.552 3.115l46.592 46.613c9.472-17.75 15.872-37.226 18.709-57.792l-80.406-80.406c-4.16-4.16-4.16-10.923 0-15.082 2.091-2.091 4.822-3.115 7.552-3.115s5.462 1.046 7.552 3.115l66.923 66.923c-1.942-73.152-49.301-136.32-117.142-159.638z" />
<glyph unicode="&#xe60c;" d="M394.24 337.894c-65.049 0-117.786-52.736-117.786-117.76 0-24.704 7.629-47.616 20.634-66.56h-82.176c12.979 18.944 20.608 41.882 20.608 66.586 0 65.024-52.736 117.76-117.76 117.76s-117.76-52.736-117.76-117.76 52.736-117.76 117.76-117.76h276.48c65.024 0 117.76 52.736 117.76 117.76s-52.736 117.735-117.76 117.735zM51.2 220.16c0 36.762 29.799 66.56 66.56 66.56s66.56-29.798 66.56-66.56c0-36.787-29.798-66.56-66.56-66.56s-66.56 29.773-66.56 66.56zM394.24 153.6c-36.787 0-66.586 29.773-66.586 66.56 0 36.762 29.798 66.56 66.586 66.56 36.762 0 66.56-29.798 66.56-66.56 0-36.787-29.798-66.56-66.56-66.56z" />
<glyph unicode="&#xe60d;" d="M224 82.745l-102.627 118.627 29.254 29.255 73.373-57.372 137.372 121.372 29.256-29.254zM415.886 416c0.039-0.033 0.081-0.075 0.114-0.115v-383.771c-0.033-0.039-0.075-0.081-0.114-0.114h-319.772c-0.040 0.033-0.081 0.075-0.114 0.114v383.772c0.033 0.040 0.075 0.081 0.115 0.114h-64.115v-384c0-35.2 28.8-64 64-64h320c35.2 0 64 28.8 64 64v384h-64.114zM320 416v32c0 17.673-14.327 32-32 32h-64c-17.673 0-32-14.327-32-32v-32h-64v-64h256v64h-64zM288 416h-64v32h64v-32z" />
<glyph unicode="&#xe60e;" d="M245.474-22.205c18.748 26.284 43.292 52.015 79.584 60.789 101.108 24.434 146.241 36.138 159.124 120.473 10.276 67.674-40.986 98.615-40.986 142.426 0 43.806 17.553 54.758 32.762 72.298l-56.149 71.214c-94.749-32.855-149.745 7.486-174.333 30.524-24.54-22.98-79.532-63.694-174.303-30.793l-56.149-71.231c15.213-17.51 32.757-28.471 32.757-72.289 0-43.811-51.279-74.743-40.953-142.401 12.883-84.363 57.99-96.060 159.115-120.519 36.244-8.736 60.81-34.207 79.532-60.491v0z" horiz-adv-x="491" />
<glyph unicode="&#xe60f;" d="M82.841 226.14h35.174v-58.368h6.482c0.010 0 0.010 0 0.020 0h6.512v58.368h35.942v10.844h175.35v-11.305h32.533v-57.907h6.339c0.010 0 0.010 0 0.021 0h6.339v57.907h38.267v8.775c0 0.113 0.062 0.215 0.062 0.327 0 0.738 0 1.464 0 2.202h58.573v13.476h-58.573c0 0.553 0 1.116 0 1.679 0 0.113-0.062 0.215-0.062 0.327v8.53h-83.497v-10.537h-81.008v27.166h-7.055c-0.010 0-0.010 0-0.020 0h-6.942v-27.166h-80.343v11.305h-84.112v-11.305h-64.901v-13.476h64.901v-10.844zM226.53 300.933h53.289v26.736h73.042v129.874h-196.946v-129.874h70.615v-26.736zM175.872 347.627v89.948h157.031v-89.948h-157.030zM197.837 300.421h110.674v-5.499h-110.674v5.499zM6.533 23.204h70.615v-26.736h53.289v26.736h73.052v129.874h-196.956v-129.874zM26.501 133.12h157.020v-89.959h-157.020v89.959zM48.466-4.045h110.674v-5.499h-110.674v5.499zM308.51 156.078v-129.874h70.615v-26.736h53.289v26.736h73.052v129.874h-196.956zM485.499 46.162h-157.020v89.948h157.020v-89.948zM350.443-1.045h110.674v-5.499h-110.674v5.499z" />
<glyph unicode="&#xe610;" d="M451.656 109.261c8.93-0.522 15.637 6.594 17.49 14.654 0.379 0.952 0.563 2.068 0.491 3.338-0.584 10.189-7.803 17.408-17.981 17.991-7.199 0.42-12.892-4.137-15.831-10.127-47.902 0-95.795 0-143.698 0 34.969 37.519 69.939 75.038 104.909 112.558 0.952-0.205 1.904-0.389 2.918-0.399 9.308-0.154 19.118 6.43 19.282 16.619 0.164 9.319-6.43 19.108-16.62 19.282s-17.91-6.492-19.251-16.61c-0.174-1.27-0.072-2.386 0.236-3.369 0.276-1.813 0.85-3.574 1.587-5.253-38.154-40.95-76.308-81.889-114.473-122.829-1.127 0-2.274 0-3.399 0 0 56.433 0 112.865 0 169.308 4.925 2.498 8.469 7.486 9.728 12.964 0.379 0.952 0.574 2.068 0.491 3.338-0.594 10.199-7.803 17.398-17.991 17.992-10.158 0.584-17.439-8.694-17.982-17.992-0.41-7.147 4.086-12.81 10.014-15.769 0-56.617 0-113.223 0-169.84-1.239 0-2.478 0-3.717 0-37.673 40.407-75.326 80.804-112.978 121.221 0.983 1.956 1.679 4.055 2.007 6.226 0.307 0.973 0.41 2.099 0.236 3.369-1.341 10.117-9.063 16.784-19.251 16.61s-16.784-9.964-16.62-19.282c0.164-10.178 9.974-16.763 19.282-16.619 0.615 0.010 1.157 0.164 1.741 0.236 34.734-37.253 69.448-74.506 104.182-111.769-49.152 0-98.304 0-147.446 0-2.918 5.796-8.602 9.595-15.841 10.025-10.158 0.584-17.459-8.694-17.992-17.991-0.594-10.168 8.694-17.459 17.992-17.991 7.239-0.42 12.974 4.199 15.892 10.24 54.016 0 108.042 0 162.068 0 4.208-4.516 8.428-9.042 12.636-13.568 1.741-1.853 3.676-2.498 5.509-2.294 1.721-0.195 3.543 0.44 5.212 2.068 0.236 0.185 0.44 0.379 0.656 0.594 4.096 4.403 8.202 8.796 12.298 13.2 52.654 0 105.298 0 157.952 0 3.041-5.878 9.615-9.748 16.261-10.127zM241.838 276.183v12.656c-11.448 5.233-20.459 16.098-21.371 32.901-1.147 21.412 18.135 36.793 37.868 37.847 21.401 1.157 36.772-18.125 37.837-37.847-0.85-15.596-8.653-26.163-18.934-31.774v-13.957c17.52 7.536 29.143 26.491 30.167 45.732-3.41 63.222-94.781 63.222-98.192 0-1.147-21.627 13.865-38.502 32.625-45.558zM22.825 128c-1.147 21.412 18.125 36.793 37.847 37.847 15.135 0.819 27.115-8.642 33.3-21.176h12.431c-17.049 45.937-91.76 40.387-94.823-16.671-1.495-27.73 23.552-47.719 49.090-49.091 21.422-1.147 38.175 13.538 45.353 32.041h-12.042c-16.005-30.761-68.905-25.129-71.158 17.050zM405.197 144.108h11.305c6.021 13.066 20.296 21.709 34.867 22.498 21.412 1.147 36.793-18.125 37.858-37.858-2.243-41.543-53.545-47.575-70.38-18.361h-13.435c7.383-17.838 26.512-29.686 45.947-30.73 27.74-1.495 47.719 23.552 49.101 49.091-3.082 57.6-79.166 62.71-95.262 15.36zM123.095 217.529c4.608 0.103 8.929 0.952 12.984 2.365l-9.728 10.773c-19.385-3.482-41.288 6.912-44.636 33.014-2.745 21.279 15.35 38.031 34.939 40.56 21.268 2.734 38.021-15.35 40.56-34.949 0.143-7.055-1.341-13.097-3.779-18.309l8.028-8.868c4.669 8.489 7.137 18.309 6.963 28.006-8.089 62.812-99.216 56.034-97.925-7.281 0.553-27.76 27.013-45.834 52.593-45.312zM365.159 250.982c-2.437 5.212-3.922 11.254-3.779 18.309 2.539 19.599 19.292 37.673 40.56 34.949 19.589-2.529 37.683-19.282 34.939-40.56-3.349-26.091-25.262-36.485-44.636-33.014l-9.728-10.772c4.055-1.413 8.366-2.263 12.985-2.365 25.579-0.522 52.039 17.541 52.613 45.312 1.29 63.314-89.835 70.093-97.925 7.28-0.185-9.697 2.294-19.517 6.963-28.006l8.007 8.868z" />
<glyph unicode="&#xe611;" d="M457.36 191.232c0 0-10.558 6.113-15.841 9.165-0.133 3.051-0.461 6.041-1.096 8.96 4.188 3.584 12.554 10.752 12.554 10.752v14.448l-20.623 24.054h-14.459c0 0-6.851-5.868-10.271-8.806-3.717 1.802-7.639 3.277-11.745 4.393-0.327 4.075-0.993 12.226-0.993 12.226l-10.219 10.219-31.56-2.56-10.219-10.22c0 0 0.86-10.711 1.28-16.066-3.082-1.762-6-3.748-8.724-5.959-4.434 2.028-13.332 6.093-13.332 6.093l-13.978-3.666-13.209-28.805-0.471-1.945 4.137-12.022c0 0 10.301-4.711 15.473-7.065 0.226-3.399 0.758-6.707 1.598-9.923-3.932-3.338-11.806-10.005-11.806-10.005v-14.449l20.47-24.166c0 0 11.899-1.413 12.544-1.065s1.915 1.065 1.915 1.065 7.475 6.329 11.223 9.493c3.164-1.403 6.441-2.601 9.861-3.512 0.389-4.25 1.157-12.738 1.157-12.738l10.219-10.219 31.519 2.877 10.219 10.219c0 0-0.993 10.947-1.485 16.425 2.58 1.485 5.048 3.092 7.383 4.885 4.106-2.365 12.298-7.106 12.298-7.106l13.978 3.666 15.862 27.423-3.656 13.937zM376.043 165.898c-17.592 0-31.856 14.264-31.856 31.867s14.264 31.857 31.856 31.857c17.603 0 31.867-14.265 31.867-31.857s-14.264-31.867-31.867-31.867zM363.305 418.058h-312.32v-117.76h312.32v117.76zM120.74 335.257c-13.076 0-23.685 10.599-23.685 23.685s10.599 23.685 23.685 23.685 23.685-10.599 23.685-23.685-10.608-23.685-23.685-23.685zM208.056 335.257c-13.077 0-23.685 10.599-23.685 23.685s10.599 23.685 23.685 23.685 23.685-10.599 23.685-23.685-10.608-23.685-23.685-23.685zM298.445 335.493c-13.077 0-23.685 10.599-23.685 23.685s10.599 23.685 23.685 23.685 23.685-10.599 23.685-23.685-10.608-23.685-23.685-23.685zM253.645 197.99c0 37.141 20.091 69.529 49.941 87.101h-252.601v-117.76h207.422c-3.072 9.677-4.762 19.968-4.762 30.659zM120.74 202.301c-13.076 0-23.685 10.599-23.685 23.685s10.599 23.685 23.685 23.685 23.685-10.599 23.685-23.685-10.608-23.685-23.685-23.685zM208.056 202.301c-13.077 0-23.685 10.599-23.685 23.685s10.599 23.685 23.685 23.685 23.685-10.599 23.685-23.685-10.608-23.685-23.685-23.685zM326.82 100.874v-45.538h-239.36v66.99h200.387c-8.212 7.26-15.227 15.821-20.726 25.385h-216.136v-117.76h312.32v67.349c-2.816-0.236-5.652-0.43-8.53-0.43-9.718 0-19.067 1.444-27.955 4.004z" />
<glyph unicode="&#xe612;" d="M5.232 174.92h72.386v-27.413h54.62v27.413h74.864v133.12h-201.871v-133.12zM25.692 287.58h160.963v-92.201h-160.963v92.201zM48.21 146.995h113.439v-5.632h-113.439v5.632zM304.906 306.637v-133.12h72.387v-27.413h54.62v27.413h74.865v133.12h-201.871zM486.329 193.976h-160.963v92.201h160.962v-92.201zM347.894 145.592h113.438v-5.632h-113.438v5.632zM248.043 295.004l-29.553-25.426 29.553-23.030v18.105h45.496v12.257h-45.496zM263.987 214.794h-45.496v-12.257h45.496v-18.094l29.553 25.426-29.553 23.030z" />
<glyph unicode="&#xe613;" d="M280.433 127.14h-48.855v41.093h-228.352v-86.088h228.352v34.765h48.855v-34.786h228.352v86.098h-228.352v-41.083zM204.903 100.69h-175.012v48.978h175.012v-48.978zM307.098 149.647h175.012v-48.978h-175.012v48.978zM280.433 230.727h-48.855v37.95h-228.352v-86.088h228.352v37.898h48.855v-37.929h228.352v86.098h-228.352v-37.929zM54.221 208.149c-9.564 0-17.306 7.752-17.306 17.316s7.752 17.305 17.305 17.305 17.316-7.751 17.316-17.305c0-9.575-7.752-17.316-17.316-17.316zM118.057 208.149c-9.564 0-17.305 7.752-17.305 17.316s7.752 17.305 17.305 17.305 17.316-7.751 17.316-17.305c0.010-9.575-7.751-17.316-17.316-17.316zM395.284 242.76c9.564 0 17.305-7.762 17.305-17.316s-7.752-17.306-17.305-17.306c-9.575 0-17.316 7.752-17.316 17.305s7.741 17.316 17.316 17.316zM331.438 242.76c9.564 0 17.305-7.762 17.305-17.316s-7.752-17.306-17.305-17.306-17.316 7.752-17.316 17.305 7.762 17.316 17.316 17.316zM280.433 365.865v-37.898h-48.855v37.929h-228.352v-86.098h228.352v37.929h48.855v-37.959h228.352v86.098h-228.352zM54.221 305.357c-9.564 0-17.306 7.762-17.306 17.316s7.752 17.305 17.305 17.305 17.316-7.752 17.316-17.305-7.752-17.316-17.316-17.316zM118.057 305.357c-9.564 0-17.305 7.762-17.305 17.316s7.752 17.305 17.305 17.305 17.316-7.752 17.316-17.305-7.751-17.316-17.316-17.316zM184.146 305.52c-9.575 0-17.305 7.752-17.305 17.316s7.742 17.305 17.305 17.305 17.305-7.752 17.305-17.305c0.010-9.564-7.731-17.316-17.305-17.316zM331.438 305.337c-9.564 0-17.316 7.751-17.316 17.305 0 9.575 7.762 17.316 17.316 17.316s17.305-7.751 17.305-17.316c0.010-9.554-7.741-17.305-17.305-17.305zM395.284 305.337c-9.575 0-17.316 7.751-17.316 17.305 0 9.575 7.752 17.316 17.316 17.316s17.305-7.751 17.305-17.316c0-9.554-7.752-17.305-17.305-17.305zM461.363 305.5c-9.564 0-17.305 7.751-17.305 17.305s7.752 17.316 17.305 17.316 17.316-7.762 17.316-17.316-7.762-17.305-17.316-17.305z" />
<glyph unicode="&#xe614;" d="M363.459 263.394h-217.559v-82.033h217.559v82.033zM194.499 205.721c-9.124 0-16.496 7.383-16.496 16.497s7.383 16.496 16.496 16.496c9.113 0 16.487-7.383 16.487-16.496s-7.373-16.497-16.487-16.497zM255.314 205.721c-9.113 0-16.487 7.383-16.487 16.497s7.383 16.496 16.487 16.496 16.496-7.383 16.496-16.496-7.394-16.497-16.496-16.497zM348.18 465.736v-58.050h59.658l-54.303-51.671h-191.652l-55.194 51.671h57.119v58.050h-153.979v-58.050h66.898l69.171-64.778v-68.925h217.559v63.202l74.076 70.502h64.625v58.050h-153.979zM131.83 448.389c6.451 0 11.694-5.233 11.694-11.684 0-6.441-5.243-11.673-11.694-11.673-6.441 0-11.663 5.233-11.663 11.673 0 6.451 5.222 11.684 11.663 11.684zM87.266 448.266c6.451 0 11.674-5.223 11.674-11.663 0-6.451-5.222-11.684-11.674-11.684-6.441 0-11.684 5.223-11.684 11.684 0.010 6.441 5.253 11.663 11.684 11.663zM44.227 424.919c-6.462 0-11.684 5.223-11.684 11.684 0 6.441 5.222 11.663 11.684 11.663 6.451 0 11.674-5.223 11.674-11.663 0-6.462-5.222-11.684-11.674-11.684zM194.499 298.332c-9.124 0-16.496 7.383-16.496 16.496s7.383 16.497 16.496 16.497c9.113 0 16.487-7.383 16.487-16.497s-7.373-16.496-16.487-16.496zM255.314 298.332c-9.113 0-16.487 7.383-16.487 16.496s7.383 16.497 16.487 16.497 16.496-7.383 16.496-16.497c0-9.113-7.394-16.496-16.496-16.496zM318.279 298.496c-9.113 0-16.486 7.383-16.486 16.497s7.383 16.497 16.486 16.497c9.124 0 16.497-7.383 16.497-16.497s-7.373-16.497-16.497-16.497zM425.615 448.266c6.451 0 11.673-5.223 11.673-11.663 0-6.451-5.223-11.684-11.673-11.684-6.441 0-11.684 5.223-11.684 11.684 0.010 6.441 5.253 11.663 11.684 11.663zM382.577 424.919c-6.462 0-11.684 5.223-11.684 11.684 0 6.441 5.223 11.663 11.684 11.663 6.451 0 11.673-5.223 11.673-11.663 0-6.462-5.223-11.684-11.673-11.684zM470.18 425.031c-6.441 0-11.663 5.233-11.663 11.673 0 6.451 5.223 11.684 11.663 11.684 6.451 0 11.694-5.233 11.694-11.684 0-6.441-5.243-11.673-11.694-11.673zM363.459 104.571v63.12h-217.559v-67.605l-63.826-59.771h-72.243v-58.050h153.979v58.050h-51.784l48.425 45.353h193.229l41.329-38.697h-46.838v-58.050h153.979v58.050h-77.179l-61.512 57.6zM44.227-0.502c-6.462 0-11.684 5.223-11.684 11.684 0 6.441 5.222 11.663 11.684 11.663 6.451 0 11.674-5.223 11.674-11.663 0-6.462-5.222-11.684-11.674-11.684zM87.266-0.502c-6.441 0-11.684 5.223-11.684 11.684 0 6.441 5.243 11.663 11.684 11.663 6.451 0 11.674-5.223 11.674-11.663 0-6.462-5.222-11.684-11.674-11.684zM131.83 22.969c6.451 0 11.694-5.233 11.694-11.684 0-6.441-5.243-11.673-11.694-11.673-6.441 0-11.663 5.233-11.663 11.673 0 6.451 5.222 11.684 11.663 11.684zM338.053 103.353h-166.748v46.663h166.738v-46.663zM382.577 6.144c-6.462 0-11.684 5.223-11.684 11.684 0 6.441 5.223 11.663 11.684 11.663 6.451 0 11.673-5.223 11.673-11.663 0-6.462-5.223-11.684-11.673-11.684zM470.18 29.614c6.451 0 11.694-5.233 11.694-11.684 0-6.441-5.243-11.673-11.694-11.673-6.441 0-11.663 5.233-11.663 11.673 0 6.451 5.223 11.684 11.663 11.684zM437.289 17.828c0-6.451-5.223-11.684-11.673-11.684-6.441 0-11.684 5.223-11.684 11.684 0 6.441 5.243 11.663 11.684 11.663 6.451 0 11.673-5.223 11.673-11.663z" />
<glyph unicode="&#xe615;" d="M83.856 117.104c1.085-20.377 30.525-20.388 31.632 0-1.096 20.306-32.717 20.377-31.632 0zM187.341 380.488v35.911h-174.121v-380.529h174.162v22.589c0.154 0.829 0.164 1.598 0 2.314v11.008h-0.041c0 102.892 0 205.793 0 308.705zM70.174 172.585c-1.925-5.161-6.103-9.954-12.196-9.144-7.106 0.952-13.332 5.417-13.332 13.322 0 7.895 6.215 12.37 13.332 13.312 6.41 0.86 10.68-4.475 12.472-9.913 0.604-1.045 0.993-2.161 0.829-3.399 0.215-1.751-0.307-3.072-1.106-4.178zM99.717 92.447c-12.82 0.686-25.447 10.711-24.699 24.647 0.686 12.841 10.773 25.395 24.699 24.658 13.936-0.758 23.859-10.721 24.597-24.658-0.686-12.79-10.68-25.385-24.596-24.647zM87.112 177.991c0 7.895 6.206 12.36 13.322 13.312 6.4 0.85 10.68-4.475 12.483-9.913 0.604-1.034 0.993-2.161 0.829-3.399 0.225-1.751-0.297-3.072-1.106-4.178-1.925-5.151-6.103-9.954-12.196-9.134-7.127 0.952-13.332 5.417-13.332 13.312zM156.15 173.814c-1.925-5.151-6.103-9.954-12.196-9.134-7.117 0.952-13.333 5.417-13.333 13.312s6.206 12.36 13.333 13.312c6.41 0.85 10.68-4.475 12.472-9.913 0.604-1.034 0.994-2.161 0.829-3.399 0.226-1.751-0.307-3.072-1.106-4.178zM148.818 237.824c-31.918 0-63.836 0-95.764 0-13.302 0-13.302 20.623 0 20.623 31.918 0 63.836 0 95.764 0 13.302 0 13.302-20.623 0-20.623zM149.873 275.087c-31.908 0-63.826 0-95.754 0-13.302 0-13.302 20.624 0 20.624 31.918 0 63.836 0 95.754 0 13.312-0.010 13.312-20.624 0-20.624zM149.873 314.839c-31.908 0-63.826 0-95.754 0-13.302 0-13.302 20.623 0 20.623 31.918 0 63.836 0 95.754 0 13.312-0.010 13.312-20.623 0-20.623zM149.873 352.727c-31.908 0-63.826 0-95.754 0-13.302 0-13.302 20.624 0 20.624 31.918 0 63.836 0 95.754 0 13.312 0 13.312-20.624 0-20.624zM296.919 62.085h72.387v-27.413h54.62v27.413h74.865v133.12h-201.872v-133.12zM317.378 174.745h160.963v-92.201h-160.962v92.201zM339.897 34.161h113.439v-5.632h-113.438v5.632zM296.919 419.471v-133.12h72.387v-27.413h54.62v27.413h74.865v133.12h-201.872zM478.341 306.811h-160.962v92.201h160.962v-92.201zM339.897 258.427h113.439v-5.632h-113.438v5.632zM230.103 359.762h-6.083v-117.094h-25.518v-14.336h25.518v-99.226h6.881c1.762 0 3.523 0 5.284 0 12.831 0 25.671 0 38.502 0h7.137v14.336h-44.524c0 2.202 0 4.403 0 6.605 0 31.365 0 62.72 0 94.075s0 62.71 0 94.075c0 3.461 0.092 5.663 0.174 7.24h44.35v14.336h-51.722z" />
<glyph unicode="&#xe616;" d="M338.227 86.682c-0.533 0.031-1.034-0.021-1.546-0.010 0.604 2.704 1.014 5.427 1.157 8.182-1.372 25.313-19.385 43.305-44.677 44.677-14.838 0.788-27.207-6.779-35.154-17.858-7.926 10.445-20.265 17.050-35.185 17.858-25.242 1.351-43.407-21.433-44.656-44.677-0.154-2.99 0.041-5.858 0.512-8.642-1.577 0.226-3.195 0.379-4.833 0.471-27.29 1.474-46.919-23.163-48.281-48.272-1.382-25.682 20.327-44.575 43.827-47.841v-0.45h178.084v0.563c22.385 3.789 37.827 25.549 39.024 47.728-1.454 27.331-20.93 46.797-48.272 48.272zM169.4 308.859v-0.451h178.084v0.563c22.385 3.789 37.827 25.549 39.024 47.728-1.464 27.33-20.93 46.797-48.272 48.272-0.533 0.031-1.034-0.020-1.546-0.010 0.604 2.703 1.014 5.427 1.157 8.182-1.382 25.303-19.385 43.305-44.688 44.677-14.838 0.788-27.207-6.779-35.154-17.858-7.926 10.445-20.265 17.050-35.185 17.858-25.242 1.351-43.407-21.433-44.656-44.677-0.154-2.99 0.041-5.858 0.512-8.643-1.577 0.226-3.195 0.379-4.833 0.471-27.29 1.475-46.919-23.163-48.281-48.272-1.372-25.682 20.337-44.575 43.838-47.841zM317.747 162.437v77.118h30.669l-43.079 50.074-39.024-50.074h30.679v-77.118zM191.734 289.628v-77.107h-30.669l43.090-50.084 39.025 50.084h-30.669v77.107z" />
<glyph unicode="&#xe617;" d="M297.103 94.433c2.745-0.358 5.827 0.164 7.229 2.939 0.327 0.676 3.358 2.775 5.847 5.417 0.819 0.522 1.567 1.239 2.13 2.355 0.164 0.297 0.307 0.819 0.461 1.26 0.051 0.082 0.144 0.185 0.185 0.256 0.072 0.164 0.031 0.297 0.092 0.44 3.922 12.985 6.922 64.144-4.434 68.976-5.028 2.14-6.728 3.461-11.848 2.816-20.296-2.519-22.395 11.038-22.128 30.218 0.327 24.637-6.082 58.819 26.757 55.818 2.284-0.215 4.342 1.403 5.529 3.164 9.513 14.285 17.95 47.841 9.411 69.325-9.851 24.802-45.538 9.523-60.18-3.379-44.441-39.137-39.168-126.955-26.85-177.705 9.267-38.226 31.006-56.924 67.799-61.901zM104.561 463.575v-84.296h-16.24v-30.72h16.24v-57.785h-16.24v-30.72h16.24v-62.72h-16.24v-30.72h16.24v-67.84h-16.24v-30.72h16.24v-83.64h319.12v479.161h-319.12zM392.96 15.145h-257.68v52.921h19.6v30.72h-19.6v67.84h19.6v30.72h-19.6v62.72h19.6v30.72h-19.6v57.785h19.6v30.72h-19.6v53.565h257.68v-417.71z" />
<glyph unicode="&#xe618;" d="M182.385 302.869c3.021-3.513 6.165-7.158 9.718-10.435 1.751-1.598 4.004-2.478 6.318-2.478 3.973 0 7.506 2.581 8.796 6.441 3.062 9.165 9.38 18.104 15.493 26.757 1.413 2.007 2.816 3.984 4.157 5.939 1.884 2.755 2.109 6.072 0.625 8.888-2.99 5.663-12.298 6.533-16.118 0.952l-3.42-4.925c-4.178-6.011-8.478-12.165-12.094-18.647-0.051 0.051-0.113 0.123-0.174 0.185l-2.222 2.56c-4.188 4.803-12.298 3.205-14.91-2.56-1.526-3.349-0.963-7.158 1.464-9.943l2.365-2.734zM244.665 358.236h-86.221v-86.221h86.221v86.221zM234.424 282.255h-65.741v65.741h65.741v-65.741zM291.277 304.077c3.021-3.523 6.164-7.168 9.718-10.445 1.751-1.598 4.004-2.478 6.318-2.478 3.973 0 7.506 2.581 8.796 6.441 3.062 9.165 9.38 18.104 15.493 26.757 1.413 2.007 2.816 3.994 4.158 5.939 1.884 2.765 2.11 6.083 0.625 8.899-2.99 5.662-12.298 6.523-16.118 0.952l-3.42-4.935c-4.178-6.011-8.478-12.165-12.094-18.647-0.051 0.061-0.113 0.123-0.174 0.195l-2.222 2.55c-4.188 4.803-12.298 3.205-14.909-2.56-1.526-3.349-0.962-7.158 1.464-9.943l2.365-2.724zM353.557 359.445h-86.221v-86.21h86.221v86.21zM343.317 283.474h-65.741v65.731h65.741v-65.731zM182.385 202.404c3.021-3.522 6.165-7.158 9.718-10.435 1.751-1.598 4.004-2.488 6.318-2.488 3.973 0 7.506 2.591 8.796 6.441 3.062 9.175 9.38 18.115 15.493 26.767 1.413 2.007 2.816 3.983 4.157 5.939 1.884 2.755 2.109 6.072 0.625 8.888-2.99 5.662-12.298 6.523-16.118 0.952l-3.42-4.925c-4.178-6.011-8.478-12.165-12.094-18.657-0.051 0.062-0.113 0.133-0.174 0.195l-2.222 2.56c-4.188 4.793-12.298 3.205-14.91-2.57-1.526-3.338-0.963-7.147 1.464-9.933l2.365-2.734zM244.665 257.772h-86.221v-86.221h86.221v86.221zM234.424 181.791h-65.741v65.741h65.741v-65.741zM291.277 203.602c3.021-3.512 6.164-7.158 9.718-10.435 1.751-1.598 4.004-2.478 6.318-2.478 3.973 0 7.506 2.58 8.796 6.441 3.062 9.165 9.38 18.104 15.493 26.757 1.413 2.007 2.816 3.994 4.158 5.939 1.884 2.765 2.11 6.072 0.625 8.888-2.99 5.662-12.298 6.533-16.118 0.952l-3.42-4.925c-4.178-6.011-8.478-12.165-12.094-18.647-0.051 0.051-0.113 0.123-0.174 0.195l-2.222 2.55c-4.188 4.803-12.298 3.205-14.909-2.56-1.526-3.349-0.962-7.158 1.464-9.943l2.365-2.734zM353.557 258.97h-86.221v-86.211h86.221v86.211zM343.317 182.999h-65.741v65.731h65.741v-65.731zM182.385 101.929c3.021-3.522 6.165-7.158 9.718-10.435 1.751-1.598 4.004-2.488 6.318-2.488 3.973 0 7.506 2.591 8.796 6.441 3.062 9.175 9.38 18.115 15.493 26.767 1.413 2.007 2.816 3.983 4.157 5.939 1.884 2.755 2.109 6.072 0.625 8.889-2.99 5.663-12.298 6.523-16.118 0.952l-3.42-4.935c-4.178-6-8.478-12.165-12.094-18.647-0.051 0.062-0.113 0.133-0.174 0.195l-2.222 2.56c-4.188 4.793-12.298 3.205-14.91-2.57-1.526-3.349-0.963-7.147 1.464-9.933l2.365-2.734zM244.665 157.286h-86.221v-86.21h86.221v86.211zM234.424 81.316h-65.741v65.731h65.741v-65.731zM291.277 103.127c3.021-3.512 6.164-7.158 9.718-10.435 1.751-1.598 4.004-2.478 6.318-2.478 3.973 0 7.506 2.58 8.796 6.441 3.062 9.165 9.38 18.105 15.493 26.757 1.413 2.007 2.816 3.983 4.158 5.939 1.884 2.755 2.11 6.072 0.625 8.889-2.99 5.663-12.298 6.533-16.118 0.952l-3.42-4.925c-4.178-6.011-8.478-12.165-12.094-18.647-0.051 0.051-0.113 0.123-0.174 0.185l-2.222 2.56c-4.188 4.803-12.298 3.205-14.909-2.56-1.526-3.349-0.962-7.158 1.464-9.943l2.365-2.734zM353.557 158.505h-86.221v-86.221h86.221v86.221zM343.317 82.524h-65.741v65.741h65.741v-65.741zM76.523 450.13v-452.26h358.953v452.26h-358.953zM404.757 28.59h-297.513v390.82h297.513v-390.82z" />
<glyph unicode="&#xe619;" d="M123.433 209.183c-24.525 1.321-44.267-13.568-54.722-33.68l6.379-3.062c9.564 16.671 28.805 27.484 48.343 28.529 21.197 1.137 38.297-11.632 47.411-28.969l7.465 3.584c-10.393 19.579-30.137 32.266-54.876 33.598zM122.071 192.768c-17.654 0.952-31.939-9.493-39.792-23.777l6.728-3.236c6.902 10.988 19.855 18.094 33.065 18.8 14.756 0.798 26.665-8.059 33.065-20.091l7.424 3.563c-7.68 14.408-22.251 23.757-40.489 24.74zM122.071 176.353c-10.987 0.594-19.948-5.673-25.129-14.397l6.533-3.144c7.885 11.858 28.559 11.284 36.813-1.485l7.486 3.604c-5.048 8.94-14.203 14.797-25.703 15.421zM123.433 159.928c-4.537 0.246-8.305-2.13-10.701-5.56l7.609-3.656c1.741 1.045 4.096 1.014 5.909-0.123l7.885 3.779c-2.406 3.246-6.154 5.315-10.701 5.56zM127.529 141.118c0-2.217-1.797-4.014-4.014-4.014s-4.014 1.797-4.014 4.014c0 2.217 1.797 4.014 4.014 4.014s4.014-1.797 4.014-4.014zM11.193 101.54h81.552v-30.884h61.532v30.884h84.347v149.965h-227.43v-149.965zM34.242 228.454h181.32v-103.865h-181.32v103.865zM59.597 70.072h127.795v-6.349h-127.795v6.349zM389.652 202.148c21.197 1.137 38.298-11.632 47.411-28.969l7.465 3.584c-10.384 19.568-30.126 32.256-54.866 33.597-24.525 1.321-44.267-13.568-54.723-33.68l6.38-3.062c9.554 16.671 28.795 27.474 48.333 28.529zM388.291 193.935c-17.654 0.952-31.938-9.493-39.793-23.777l6.728-3.236c6.902 10.988 19.856 18.094 33.065 18.8 14.756 0.798 26.665-8.059 33.065-20.091l7.424 3.563c-7.68 14.418-22.252 23.757-40.489 24.74zM388.291 177.521c-10.988 0.594-19.947-5.673-25.129-14.397l6.533-3.144c7.885 11.858 28.56 11.284 36.813-1.485l7.486 3.604c-5.038 8.95-14.203 14.797-25.702 15.421zM389.652 161.096c-4.536 0.246-8.305-2.13-10.701-5.56l7.608-3.656c1.741 1.045 4.096 1.014 5.909-0.123l7.885 3.779c-2.406 3.246-6.154 5.315-10.701 5.56zM393.748 142.285c0-2.217-1.797-4.014-4.014-4.014s-4.014 1.797-4.014 4.014c0 2.217 1.797 4.014 4.014 4.014s4.014-1.797 4.014-4.014zM273.377 251.505v-149.965h81.551v-30.884h61.532v30.884h84.347v149.965h-227.43zM477.747 124.59h-181.32v103.865h181.32v-103.865zM321.792 70.072h127.795v-6.349h-127.795v6.349zM77.23 347.187h37.826v-89.743h6.963c0.010 0 0.010 0 0.010 0h7.609v89.743h37.827v11.52h177.869v-11.52h33.833v-89.743h7.977c0.010 0 0.010 0 0.010 0h6.594v89.743h41.83v11.52h58.224v15.319h-58.224v10.24h-11.233c-22.63 0-45.271 0-67.901 0h-11.111v-10.24h-177.869v10.24h-11.12c-22.631 0-45.271 0-67.901 0h-11.213v-10.24h-61.348v-15.319h61.348v-11.52z" />
<glyph unicode="&#xe61a;" d="M255.273 286.761c-72.182-3.236-125.102-56.135-128.317-128.317-3.246-72.089 60.979-125.286 128.317-128.317 72.079-3.226 125.276 60.979 128.297 128.317 3.236 72.11-60.979 125.296-128.297 128.317zM306.473 251.29c2.12 1.024 10.66-3.461 17.879-11.059-4.885-18.074-16.261-15.923-16.261-15.923s-8.336 0.205-7.271 7.25l8.683 5.806c0 0.010-3.656 9.349-3.031 13.927zM227.748 124.825c-0.542-2.714-3.799-9.226-5.959-13.558-2.161-4.342-3.246-5.97-5.98-8.141-2.714-2.202-4.342-5.98-4.342-5.98l-0.522-9.216c0 0 1.065-7.598 2.683-10.332 1.607-2.704-5.816-18.862-5.816-18.862-4.7 0.932-7.332 6.4-8.981 10.711-1.618 4.362-3.779 6.666-3.236 11.55 0.542 4.874-4.219 7.454-5.816 10.168-1.618 2.745-3.799 6.523-3.799 9.226 0 2.724-5.98 6.533-5.98 6.533s-10.864 4.885-12.462 7.045c-1.649 2.171-3.277 11.418-3.82 15.207s1.618 13.548 1.618 13.548 4.393 3.287 1.618 5.97c-2.703 2.714-3.236 9.789-3.236 9.789l-4.905 5.417c0 0-3.779 5.427-4.321 8.151-0.542 2.693 0 4.332 0.542 7.055 0.522 2.724-1.075 7.598-1.075 10.301 20.265 49.715 54.251 61.317 54.251 61.317l2.755-11.367c0 0-5.98-1.638-9.226-0.563-3.246 1.085-4.905 1.085-4.905 1.085l-4.321-5.97c0 0-1.638-3.809-2.202-5.97-0.522-2.181 1.075-5.417 1.075-5.417s7.598-0.543 7.598 1.628c0 2.161-1.065 3.246-1.065 3.246l-1.095 3.809c0 0 4.905 2.714 17.899 1.649 13.036-1.095 8.182-10.322 13.599-12.514 5.438-2.161-4.362-9.759-6.523-14.090-2.161-4.342-5.438 5.427-5.438 5.427s3.277 3.758-2.161 4.885c-5.427 1.065-9.022-9.769-6.267-9.247 2.714 0.543 5.734-2.918 5.181-5.622-0.553-2.724-0.553-2.509-3.256-8.458-2.714-5.98-8.601-10.394-8.601-10.394s-2.775 1.7-1.167-1.557c1.649-3.257-0.532-10.854-0.532-13.036 0-2.161-6.523 3.81-7.598 9.247-1.085 5.397-7.465 0.697-9.625 0.133-2.171-0.543-6.124 0.952-7.178 3.656-1.095 2.714-10.885-5.427-13.599-7.045-2.724-1.628-1.597-5.98 2.724-3.81s8.131 0.543 7.055-3.83c-1.085-4.311-5.427-1.618-4.885-4.311 0.522-2.714 4.885-5.438 5.95-9.247 1.085-3.779 11.407-0.543 14.663 1.086 3.246 1.639 12.503 3.257 13.568-1.086 1.106-4.342 11.397-5.95 15.196-7.035 3.82-1.086 11.397-1.628 15.749-5.98 4.311-4.342-3.267-12.493-3.83-15.207zM252.17 251.843c-0.542-5.438-9.206-12.482-8.131-14.674 1.085-2.181 0-11.469-7.608-3.318-7.598 8.141-15.207 10.905-14.643 16.363 0.123 1.075 7.864 2.786 7.977 4.69 11.51 10.691 29.901 8.499 31.303 5.97-3.287-5.406-8.345-3.604-8.899-9.031zM346.491 215.388c7.342-12.595 18.063-46.192 14.090-52.183-2.375 1.065-4.373 1.966-4.373 1.966h-14.479l8.663-10.148c0 0 4.199-6.154 10.158-5.765-3.922-45.394-41.8-74.558-41.8-74.558-5.776 5.806-2.887 10.844-2.887 10.844l1.628 8.714 0.921 14.643c0 0 0 15.186-14.5 7.977-15.545-3.983-9.063-3.983-24.781-5.069-15.739-1.086-13.138 32.092-13.138 32.092 0 49.674 38.103 12.175 38.103 12.175 21.73-14.459 24.617 11.991 24.617 11.991l15.913 5.755 1.454 7.25-2.304 10.117-23.132 9.543c0 0-2.233-7.516 3.707-16.763 0 0-1.976-10.486-6.861-7.783l-13.404 6.738c0 0-4.516 1.945-11.755-2.406-7.24-4.332-19.517 0.215-19.517 0.215s1.024 7.281 8.622 11.059l6.216 4.116c0 0-1.618 7.434-0.195 13.22 1.433 5.786 3.973 0.717 9.748 5.058 5.786 4.332 9.779-8.489 18.462-7.055 8.683 1.454 4.342 2.898 10.148 5.786 5.786 2.898 10.117-5.786 10.117-5.786l11.571-1.433c0.010 0-1.802 13.077-1.014 9.687zM438.907 227.932v-54.18h-19.599v15.278l-24.935-21.453 24.935-19.435v15.278h19.599v-48.743h68.24v113.244h-68.24zM467.794 196.168h10.506v-13.363l-2.529-24.218h-5.438l-2.539 24.217v13.363zM478.853 145.152h-11.623v8.284h11.623v-8.284zM92.672 173.742h-19.6v54.18h-68.24v-113.264h68.229v48.743h19.609v-15.278l24.945 19.435-24.945 21.463v-15.278zM33.69 196.168h10.496v-13.363l-2.519-24.218h-5.438l-2.539 24.228v13.353zM44.77 145.152h-11.643v8.284h11.643v-8.284zM224.266 349.737h32.42v-19.599h-15.268l21.453-24.935 19.435 24.935h-15.278v19.599h48.743v68.25h-113.264v-68.25h21.76zM255.826 409.375h10.496v-13.363l-2.539-24.218h-5.438l-2.519 24.218v13.363zM255.252 366.643h11.643v-7.865h-11.643v7.865z" />
<glyph unicode="&#xe61b;" d="M201.063 363.346c-0.471 0.020-0.932-0.020-1.413-0.010 0.553 2.447 0.932 4.915 1.065 7.414-1.239 22.938-17.572 39.24-40.489 40.499-13.445 0.707-24.648-6.165-31.857-16.2-7.178 9.472-18.361 15.463-31.877 16.2-22.876 1.218-39.342-19.426-40.478-40.499-0.144-2.714 0.041-5.305 0.471-7.834-1.444 0.205-2.898 0.338-4.393 0.43-24.72 1.341-42.517-20.992-43.745-43.735-1.25-23.286 18.422-40.397 39.721-43.356v-0.409h161.382v0.512c20.285 3.44 34.294 23.152 35.358 43.264-1.331 24.75-18.965 42.394-43.745 43.725zM459.981 124.201c-0.491 0.031-0.942-0.010-1.413-0.010 0.553 2.447 0.921 4.925 1.045 7.414-1.219 22.938-17.551 39.25-40.478 40.499-13.445 0.707-24.647-6.154-31.836-16.2-7.188 9.472-18.37 15.462-31.887 16.2-22.876 1.229-39.342-19.415-40.469-40.499-0.144-2.714 0.041-5.305 0.461-7.824-1.433 0.215-2.887 0.338-4.382 0.42-24.719 1.331-42.517-20.992-43.745-43.735-1.25-23.255 18.422-40.387 39.721-43.346v-0.42h161.392v0.522c20.265 3.43 34.274 23.152 35.349 43.254-1.331 24.74-18.974 42.394-43.755 43.725zM290.775 341.012c27.136 0.368 52.757 0.717 67.861-16.231 11.038-12.391 15.175-46.489 15.586-70.082h-34.386l48.343-56.166 43.745 56.166h-34.416c-0.286 19.947-3.082 64.911-21.483 85.555-22.159 24.894-55.849 24.443-85.565 24.034l-7.312-0.082 0.185-23.286 7.445 0.092zM212.695 104.745c-27.136-0.368-52.757-0.717-67.861 16.231-11.038 12.39-15.175 46.49-15.585 70.082h34.386l-48.343 56.166-43.746-56.166h34.416c0.287-19.947 3.082-64.911 21.484-85.555 22.16-24.894 55.849-24.443 85.566-24.034l7.311 0.082-0.185 23.286-7.445-0.092z" />
<glyph unicode="&#xe61c;" d="M415.846 111.36h-106.69v113.244h27.443v-58.245h46.95v-22.753l37.14 31.949-37.14 28.949v-22.753h-32.195v42.844h57.641v0.932c37.417 6.349 63.262 42.732 65.26 79.831-2.437 45.721-35 78.285-80.743 80.743-0.88 0.041-1.721-0.041-2.591-0.021 1.014 4.506 1.69 9.083 1.945 13.681-2.294 42.332-32.42 72.438-74.731 74.721-24.822 1.331-45.507-11.336-58.788-29.87-13.271 17.469-33.904 28.518-58.839 29.87-42.219 2.273-72.602-35.84-74.701-74.721-0.246-4.997 0.082-9.8 0.86-14.449-2.642 0.379-5.335 0.635-8.079 0.788-45.639 2.457-78.48-38.738-80.743-80.743-2.325-42.937 33.997-74.537 73.298-80.005v-0.748h63.744v-41.564h-32.195v22.753l-37.141-31.949 37.141-28.949v22.753h46.951v56.955h26.010v-113.244h-131.717v22.753l-37.141-31.949 37.141-28.949v22.753h146.494v128.635h23.255v-214.026h-22.754l31.949-37.141 28.949 37.14h-22.753v214.026h25.313v-128.645h121.457v-22.753l37.14 31.949-37.14 28.949v-22.743z" />
<glyph unicode="&#xe61d;" d="M190.208 338.274h30.504v-134.44h-30.504v134.44zM288.177 339.279c-18.55 0-31.704-1.201-41.098-2.816v-132.627h30.129v48.069c2.816-0.394 6.38-0.611 10.378-0.611 17.94 0 33.3 4.411 43.678 14.198 7.976 7.601 12.367 18.747 12.367 31.921 0 13.155-5.809 24.301-14.356 31.094-8.979 7.188-22.37 10.771-41.098 10.771zM287.35 274.668c-4.372 0-7.582 0.197-10.161 0.808v39.661c2.186 0.591 6.38 1.201 12.584 1.201 15.144 0 23.729-7.385 23.729-19.731 0-13.765-9.984-21.937-26.151-21.937zM256 431.222c-90.466 0-163.781-73.314-163.781-163.761s163.781-234.693 163.781-234.693 163.781 144.226 163.781 234.673-73.315 163.781-163.781 163.781zM256.413 167.877c-60.061 0-108.741 48.699-108.741 108.781 0 60.062 48.699 108.741 108.741 108.741 60.081 0 108.741-48.699 108.741-108.741 0-60.062-48.68-108.781-108.741-108.781z" />
<glyph unicode="&#xe61e;" d="M393.416 283.614c-29.516 0-56.043-12.298-74.926-32.347-7.998-8.492-21.881-18.556-36.9-27.405 7.055 26.934 29.338 60.85 44.814 75.728 19.819 19.085 31.992 45.915 31.992 75.75 0.003 57.447-45.738 104.048-102.394 104.66-56.66-0.611-102.398-47.213-102.398-104.659 0-29.836 12.172-56.665 31.993-75.75 15.477-14.878 37.76-48.794 44.814-75.728-15.021 8.85-28.903 18.913-36.9 27.405-18.884 20.049-45.41 32.347-74.925 32.347-57.193 0-103.54-46.832-103.54-104.664 0-57.819 46.346-104.669 103.54-104.669 29.521 0 56.041 12.678 74.925 32.726 8.402 8.936 23.222 20.069 39.146 29.316-1.501-73.847-36.766-128.084-72.659-149.453v-18.871h192.007v18.87c-35.896 21.368-71.159 75.607-72.659 149.453 15.926-9.247 30.743-20.384 39.146-29.316 18.883-20.047 45.403-32.726 74.926-32.726 57.193 0 103.539 46.85 103.539 104.669-0.002 57.832-46.347 104.664-103.541 104.664z" />
</font>
</defs>
</svg>
